<svg width="28" height="28" viewBox="0 0 28 28" fill="none" xmlns="http://www.w3.org/2000/svg">
<path d="M24.5 6.99885H22.1667L20.685 5.51718C20.1492 4.98078 19.4248 4.67514 18.6667 4.66552H15.75C15.5866 4.01078 15.2127 3.42783 14.6858 3.00627C14.1588 2.58472 13.508 2.34789 12.8334 2.33218V9.75218C12.8933 10.9304 13.3591 12.0516 14.1517 12.9255C15.4567 14.1801 17.1636 14.9322 18.97 15.0489L22.995 13.4389C23.4673 13.2493 23.8925 12.959 24.2411 12.5883C24.5897 12.2175 24.8532 11.7752 25.0134 11.2922L25.6667 9.50718C25.6844 9.38728 25.6844 9.26542 25.6667 9.14552V8.16552C25.6667 7.8561 25.5438 7.55935 25.325 7.34056C25.1062 7.12177 24.8095 6.99885 24.5 6.99885ZM18.6667 9.33218C18.436 9.33218 18.2104 9.26376 18.0185 9.13556C17.8267 9.00737 17.6771 8.82516 17.5888 8.61198C17.5005 8.3988 17.4774 8.16422 17.5225 7.93791C17.5675 7.7116 17.6786 7.50372 17.8417 7.34056C18.0049 7.1774 18.2128 7.06628 18.4391 7.02127C18.6654 6.97625 18.9 6.99936 19.1132 7.08766C19.3264 7.17596 19.5086 7.32549 19.6368 7.51735C19.765 7.70921 19.8334 7.93477 19.8334 8.16552C19.8334 8.47494 19.7105 8.77168 19.4917 8.99047C19.2729 9.20927 18.9761 9.33218 18.6667 9.33218Z" fill="#353535"/>
<path d="M13.2767 13.6955C12.4629 12.8042 11.9311 11.6919 11.7484 10.4988H7.00004C6.68829 10.5195 6.37572 10.4732 6.08328 10.3633C5.79084 10.2533 5.52526 10.0821 5.30434 9.86121C5.08341 9.64029 4.91223 9.37471 4.80227 9.08227C4.6923 8.78982 4.64608 8.47726 4.66671 8.16551C4.66671 7.85609 4.54379 7.55934 4.325 7.34055C4.10621 7.12176 3.80946 6.99884 3.50004 6.99884C3.19062 6.99884 2.89388 7.12176 2.67508 7.34055C2.45629 7.55934 2.33337 7.85609 2.33337 8.16551C2.34509 8.97514 2.53636 9.77208 2.89337 10.4988C3.28695 11.262 3.90617 11.8853 4.66671 12.2838V25.6655H8.16671V19.8322H15.1667V25.6655H18.6667V16.1805C16.6315 16.0202 14.7203 15.139 13.2767 13.6955Z" fill="#353535"/>
</svg>
