<svg width="41" height="41" viewBox="0 0 41 41" fill="none" xmlns="http://www.w3.org/2000/svg">
<path d="M35.8753 10.25H32.4587L30.2891 8.08041C29.5044 7.29496 28.4438 6.84741 27.3337 6.83332H23.0628C22.8235 5.8746 22.276 5.021 21.5044 4.40372C20.7328 3.78644 19.7799 3.43965 18.792 3.41666V14.2817C18.8798 16.0069 19.5618 17.6487 20.7224 18.9283C22.6333 20.7653 25.1327 21.8667 27.7778 22.0375L33.6716 19.68C34.3631 19.4024 34.9858 18.9774 35.4962 18.4345C36.0066 17.8916 36.3925 17.2439 36.627 16.5367L37.5837 13.9229C37.6096 13.7473 37.6096 13.5689 37.5837 13.3933V11.9583C37.5837 11.5052 37.4037 11.0707 37.0833 10.7503C36.7629 10.43 36.3284 10.25 35.8753 10.25ZM27.3337 13.6667C26.9958 13.6667 26.6655 13.5665 26.3846 13.3787C26.1036 13.191 25.8847 12.9242 25.7554 12.6121C25.6261 12.2999 25.5922 11.9564 25.6582 11.625C25.7241 11.2937 25.8868 10.9893 26.1257 10.7503C26.3646 10.5114 26.669 10.3487 27.0004 10.2828C27.3318 10.2169 27.6753 10.2507 27.9874 10.38C28.2996 10.5093 28.5664 10.7283 28.7541 11.0092C28.9418 11.2902 29.042 11.6204 29.042 11.9583C29.042 12.4114 28.862 12.8459 28.5416 13.1663C28.2213 13.4867 27.7867 13.6667 27.3337 13.6667Z" fill="#091E3E"/>
<path d="M19.4412 20.0558C18.2495 18.7507 17.4708 17.122 17.2032 15.375H10.2503C9.79383 15.4052 9.33615 15.3375 8.90793 15.1765C8.4797 15.0155 8.09083 14.7648 7.76733 14.4413C7.44383 14.1178 7.19318 13.729 7.03216 13.3007C6.87114 12.8725 6.80346 12.4148 6.83366 11.9583C6.83366 11.5053 6.65367 11.0707 6.3333 10.7504C6.01292 10.43 5.5784 10.25 5.12533 10.25C4.67225 10.25 4.23773 10.43 3.91735 10.7504C3.59698 11.0707 3.41699 11.5053 3.41699 11.9583C3.43415 13.1439 3.71422 14.3108 4.23699 15.375C4.8133 16.4925 5.72001 17.4051 6.83366 17.9887V37.5833H11.9587V29.0417H22.2087V37.5833H27.3337V23.6946C24.3536 23.4598 21.555 22.1696 19.4412 20.0558Z" fill="#091E3E"/>
</svg>

