<svg width="41" height="41" viewBox="0 0 41 41" fill="none" xmlns="http://www.w3.org/2000/svg">
<path d="M29.0422 23.9167C30.6864 23.9106 32.2939 23.4301 33.6717 22.5329L34.1672 22.2083C34.4423 22.0217 34.6997 21.8102 34.9359 21.5762L35.2947 21.2346C35.5953 20.9279 35.8696 20.5964 36.1147 20.2437L36.2172 20.1071C36.4938 19.699 36.7285 19.264 36.9176 18.8087C36.9791 18.682 37.0305 18.5506 37.0713 18.4158C37.2132 18.0666 37.3275 17.7067 37.413 17.3396L37.5155 16.9125C37.5803 16.4027 37.6031 15.8885 37.5838 15.375V3.41666L32.4588 8.54166H25.6255L20.5005 3.41666V15.375C20.5005 17.6404 21.4004 19.813 23.0023 21.4149C24.6042 23.0167 26.7768 23.9167 29.0422 23.9167ZM32.4588 11.9583C32.7967 11.9583 33.127 12.0585 33.4079 12.2462C33.6889 12.4339 33.9078 12.7007 34.0371 13.0129C34.1664 13.3251 34.2002 13.6686 34.1343 13.9999C34.0684 14.3313 33.9057 14.6357 33.6668 14.8746C33.4279 15.1135 33.1235 15.2762 32.7921 15.3422C32.4607 15.4081 32.1172 15.3743 31.8051 15.245C31.4929 15.1157 31.2261 14.8967 31.0384 14.6158C30.8507 14.3348 30.7505 14.0045 30.7505 13.6667C30.7505 13.2136 30.9305 12.7791 31.2508 12.4587C31.5712 12.1383 32.0057 11.9583 32.4588 11.9583ZM25.6255 11.9583C25.9634 11.9583 26.2937 12.0585 26.5746 12.2462C26.8555 12.4339 27.0745 12.7007 27.2038 13.0129C27.3331 13.3251 27.3669 13.6686 27.301 13.9999C27.2351 14.3313 27.0724 14.6357 26.8335 14.8746C26.5945 15.1135 26.2902 15.2762 25.9588 15.3422C25.6274 15.4081 25.2839 15.3743 24.9717 15.245C24.6596 15.1157 24.3928 14.8967 24.2051 14.6158C24.0173 14.3348 23.9172 14.0045 23.9172 13.6667C23.9172 13.2136 24.0971 12.7791 24.4175 12.4587C24.7379 12.1383 25.1724 11.9583 25.6255 11.9583Z" fill="#091E3E"/>
<path d="M18.7922 37.5833V29.0417H13.6672V37.5833H8.54224V20.3292C7.67332 20.2029 6.84301 19.8864 6.11063 19.4021C5.37825 18.9177 4.76188 18.2776 4.30557 17.5275C3.75396 16.6192 3.44785 15.5831 3.41724 14.5208C3.44821 13.6709 3.65273 12.8363 4.01821 12.0684C4.38369 11.3004 4.90241 10.6154 5.54246 10.0553C6.18252 9.49526 6.93037 9.07208 7.74004 8.81177C8.5497 8.55146 9.40406 8.45954 10.2506 8.54166C10.7064 8.56906 11.1629 8.49945 11.5898 8.33744C12.0167 8.17543 12.4045 7.9247 12.7274 7.6018C13.0503 7.27889 13.301 6.89117 13.463 6.46422C13.625 6.03728 13.6946 5.58082 13.6672 5.12499C13.6672 4.67191 13.8472 4.23739 14.1676 3.91702C14.488 3.59664 14.9225 3.41666 15.3756 3.41666C15.8286 3.41666 16.2632 3.59664 16.5835 3.91702C16.9039 4.23739 17.0839 4.67191 17.0839 5.12499C17.1099 6.02941 16.9509 6.9296 16.6166 7.77039C16.2824 8.61119 15.78 9.37488 15.1402 10.0147C14.5005 10.6544 13.7368 11.1568 12.896 11.4911C12.0552 11.8253 11.155 11.9843 10.2506 11.9583C7.15849 11.9583 6.8339 13.94 6.8339 14.5379C6.8339 15.1358 7.1414 17.0833 10.2506 17.0833H18.946C19.1969 18.555 19.7663 19.9541 20.6144 21.1828C21.4624 22.4115 22.5686 23.4401 23.8556 24.1967C25.1427 24.9533 26.5794 25.4197 28.0655 25.5631C29.5515 25.7065 31.0509 25.5236 32.4589 25.0271V37.5833H27.3339V29.0417H23.9172V37.5833H18.7922Z" fill="#091E3E"/>
</svg>
