<svg width="19" height="19" viewBox="0 0 19 19" fill="none" xmlns="http://www.w3.org/2000/svg">
<path d="M6.08315 9.07295C6.08315 7.42029 7.42333 6.08019 9.07697 6.08019C10.7306 6.08019 12.0715 7.42029 12.0715 9.07295C12.0715 10.7256 10.7306 12.0657 9.07697 12.0657C7.42333 12.0657 6.08315 10.7256 6.08315 9.07295ZM4.46435 9.07295C4.46435 11.619 6.52942 13.6828 9.07697 13.6828C11.6245 13.6828 13.6896 11.619 13.6896 9.07295C13.6896 6.52692 11.6245 4.46309 9.07697 4.46309C6.52942 4.46309 4.46435 6.52692 4.46435 9.07295ZM12.7942 4.2803C12.7942 4.49337 12.8573 4.70169 12.9757 4.87889C13.0941 5.0561 13.2623 5.19425 13.4593 5.27587C13.6562 5.35749 13.873 5.37891 14.0821 5.33742C14.2912 5.29594 14.4833 5.19341 14.6341 5.04281C14.7849 4.8922 14.8877 4.70029 14.9293 4.49133C14.971 4.28237 14.9498 4.06575 14.8683 3.86887C14.7867 3.67198 14.6487 3.50367 14.4714 3.38523C14.2942 3.26678 14.0858 3.20352 13.8726 3.20343H13.8722C13.5864 3.20356 13.3124 3.31705 13.1103 3.51896C12.9082 3.72087 12.7945 3.9947 12.7942 4.2803ZM5.44787 16.3804C4.57208 16.3406 4.09605 16.1948 3.77971 16.0716C3.36032 15.9084 3.06108 15.7141 2.74646 15.4001C2.43184 15.0861 2.23709 14.7873 2.07454 14.3682C1.95122 14.0522 1.80534 13.5763 1.76552 12.701C1.72198 11.7547 1.71328 11.4705 1.71328 9.07302C1.71328 6.67558 1.72269 6.39211 1.76552 5.44501C1.80541 4.56974 1.95237 4.09479 2.07454 3.77785C2.23781 3.35871 2.43227 3.05965 2.74646 2.74522C3.06065 2.43079 3.3596 2.23615 3.77971 2.0737C4.09591 1.95045 4.57208 1.80466 5.44787 1.76487C6.39474 1.72135 6.67918 1.71266 9.07697 1.71266C11.4748 1.71266 11.7595 1.72206 12.7071 1.76487C13.5829 1.80473 14.0582 1.9516 14.3753 2.0737C14.7947 2.23615 15.0939 2.43122 15.4086 2.74522C15.7232 3.05921 15.9172 3.35871 16.0805 3.77785C16.2038 4.09386 16.3497 4.56974 16.3895 5.44501C16.433 6.39211 16.4417 6.67558 16.4417 9.07302C16.4417 11.4705 16.433 11.7539 16.3895 12.701C16.3496 13.5763 16.203 14.052 16.0805 14.3682C15.9172 14.7873 15.7227 15.0864 15.4086 15.4001C15.0944 15.7138 14.7947 15.9084 14.3753 16.0716C14.0591 16.1949 13.5829 16.3407 12.7071 16.3804C11.7603 16.424 11.4758 16.4327 9.07697 16.4327C6.6781 16.4327 6.39446 16.424 5.44787 16.3804ZM5.3735 0.149774C4.41721 0.193297 3.76376 0.344838 3.19309 0.566762C2.60209 0.795941 2.10177 1.1034 1.60182 1.60227C1.10187 2.10113 0.79501 2.60193 0.565694 3.19258C0.343636 3.76327 0.192005 4.41597 0.148456 5.37169C0.104188 6.32891 0.0940552 6.63493 0.0940552 9.07295C0.0940552 11.511 0.104188 11.817 0.148456 12.7742C0.192005 13.73 0.343636 14.3826 0.565694 14.9533C0.79501 15.5436 1.10194 16.045 1.60182 16.5436C2.1017 17.0423 2.60209 17.3493 3.19309 17.5791C3.76483 17.8011 4.41721 17.9526 5.3735 17.9961C6.33179 18.0396 6.6375 18.0505 9.07697 18.0505C11.5164 18.0505 11.8227 18.0404 12.7804 17.9961C13.7368 17.9526 14.3898 17.8011 14.9609 17.5791C15.5515 17.3493 16.0522 17.0425 16.5521 16.5436C17.0521 16.0448 17.3583 15.5436 17.5883 14.9533C17.8103 14.3826 17.9627 13.7299 18.0055 12.7742C18.049 11.8163 18.0592 11.511 18.0592 9.07295C18.0592 6.63493 18.049 6.32891 18.0055 5.37169C17.9619 4.4159 17.8103 3.76291 17.5883 3.19258C17.3583 2.60229 17.0513 2.10192 16.5521 1.60227C16.053 1.10261 15.5515 0.795941 14.9616 0.566762C14.3898 0.344838 13.7367 0.192578 12.7812 0.149774C11.8234 0.10625 11.5172 0.0954056 9.07769 0.0954056C6.63822 0.0954056 6.33179 0.105532 5.3735 0.149774Z" fill="white"/>
<path d="M6.08315 9.07295C6.08315 7.42029 7.42333 6.08019 9.07697 6.08019C10.7306 6.08019 12.0715 7.42029 12.0715 9.07295C12.0715 10.7256 10.7306 12.0657 9.07697 12.0657C7.42333 12.0657 6.08315 10.7256 6.08315 9.07295ZM4.46435 9.07295C4.46435 11.619 6.52942 13.6828 9.07697 13.6828C11.6245 13.6828 13.6896 11.619 13.6896 9.07295C13.6896 6.52692 11.6245 4.46309 9.07697 4.46309C6.52942 4.46309 4.46435 6.52692 4.46435 9.07295ZM12.7942 4.2803C12.7942 4.49337 12.8573 4.70169 12.9757 4.87889C13.0941 5.0561 13.2623 5.19425 13.4593 5.27587C13.6562 5.35749 13.873 5.37891 14.0821 5.33742C14.2912 5.29594 14.4833 5.19341 14.6341 5.04281C14.7849 4.8922 14.8877 4.70029 14.9293 4.49133C14.971 4.28237 14.9498 4.06575 14.8683 3.86887C14.7867 3.67198 14.6487 3.50367 14.4714 3.38523C14.2942 3.26678 14.0858 3.20352 13.8726 3.20343H13.8722C13.5864 3.20356 13.3124 3.31705 13.1103 3.51896C12.9082 3.72087 12.7945 3.9947 12.7942 4.2803ZM5.44787 16.3804C4.57208 16.3406 4.09605 16.1948 3.77971 16.0716C3.36032 15.9084 3.06108 15.7141 2.74646 15.4001C2.43184 15.0861 2.23709 14.7873 2.07454 14.3682C1.95122 14.0522 1.80534 13.5763 1.76552 12.701C1.72198 11.7547 1.71328 11.4705 1.71328 9.07302C1.71328 6.67558 1.72269 6.39211 1.76552 5.44501C1.80541 4.56974 1.95237 4.09479 2.07454 3.77785C2.23781 3.35871 2.43227 3.05965 2.74646 2.74522C3.06065 2.43079 3.3596 2.23615 3.77971 2.0737C4.09591 1.95045 4.57208 1.80466 5.44787 1.76487C6.39474 1.72135 6.67918 1.71266 9.07697 1.71266C11.4748 1.71266 11.7595 1.72206 12.7071 1.76487C13.5829 1.80473 14.0582 1.9516 14.3753 2.0737C14.7947 2.23615 15.0939 2.43122 15.4086 2.74522C15.7232 3.05921 15.9172 3.35871 16.0805 3.77785C16.2038 4.09386 16.3497 4.56974 16.3895 5.44501C16.433 6.39211 16.4417 6.67558 16.4417 9.07302C16.4417 11.4705 16.433 11.7539 16.3895 12.701C16.3496 13.5763 16.203 14.052 16.0805 14.3682C15.9172 14.7873 15.7227 15.0864 15.4086 15.4001C15.0944 15.7138 14.7947 15.9084 14.3753 16.0716C14.0591 16.1949 13.5829 16.3407 12.7071 16.3804C11.7603 16.424 11.4758 16.4327 9.07697 16.4327C6.6781 16.4327 6.39446 16.424 5.44787 16.3804ZM5.3735 0.149774C4.41721 0.193297 3.76376 0.344838 3.19309 0.566762C2.60209 0.795941 2.10177 1.1034 1.60182 1.60227C1.10187 2.10113 0.79501 2.60193 0.565694 3.19258C0.343636 3.76327 0.192005 4.41597 0.148456 5.37169C0.104188 6.32891 0.0940552 6.63493 0.0940552 9.07295C0.0940552 11.511 0.104188 11.817 0.148456 12.7742C0.192005 13.73 0.343636 14.3826 0.565694 14.9533C0.79501 15.5436 1.10194 16.045 1.60182 16.5436C2.1017 17.0423 2.60209 17.3493 3.19309 17.5791C3.76483 17.8011 4.41721 17.9526 5.3735 17.9961C6.33179 18.0396 6.6375 18.0505 9.07697 18.0505C11.5164 18.0505 11.8227 18.0404 12.7804 17.9961C13.7368 17.9526 14.3898 17.8011 14.9609 17.5791C15.5515 17.3493 16.0522 17.0425 16.5521 16.5436C17.0521 16.0448 17.3583 15.5436 17.5883 14.9533C17.8103 14.3826 17.9627 13.7299 18.0055 12.7742C18.049 11.8163 18.0592 11.511 18.0592 9.07295C18.0592 6.63493 18.049 6.32891 18.0055 5.37169C17.9619 4.4159 17.8103 3.76291 17.5883 3.19258C17.3583 2.60229 17.0513 2.10192 16.5521 1.60227C16.053 1.10261 15.5515 0.795941 14.9616 0.566762C14.3898 0.344838 13.7367 0.192578 12.7812 0.149774C11.8234 0.10625 11.5172 0.0954056 9.07769 0.0954056C6.63822 0.0954056 6.33179 0.105532 5.3735 0.149774Z" fill="white"/>
</svg>
