<svg width="28" height="28" viewBox="0 0 28 28" fill="none" xmlns="http://www.w3.org/2000/svg">
<path d="M21.9941 6.00484C21.9494 5.0464 21.5503 4.13875 20.8741 3.458C20.5137 3.09365 20.0849 2.80412 19.6122 2.60607C19.1396 2.40802 18.6324 2.30535 18.1199 2.30397C17.6075 2.30259 17.0998 2.40253 16.6261 2.59803C16.1523 2.79353 15.7219 3.08075 15.3596 3.44316C14.9973 3.80558 14.7101 4.23604 14.5147 4.7098C14.3193 5.18356 14.2195 5.69127 14.221 6.20375C14.2225 6.71622 14.3253 7.22334 14.5234 7.69596C14.7216 8.16858 15.0112 8.59737 15.3756 8.95767L8.96011 15.3743C8.59981 15.0099 8.17102 14.7203 7.6984 14.5221C7.22579 14.324 6.71866 14.2212 6.20619 14.2197C5.69371 14.2182 5.186 14.3181 4.71224 14.5135C4.23848 14.7089 3.80802 14.996 3.4456 15.3583C3.08319 15.7207 2.79597 16.1511 2.60047 16.6248C2.40497 17.0985 2.30503 17.6062 2.30641 18.1187C2.30779 18.6311 2.41046 19.1383 2.60851 19.6109C2.80656 20.0836 3.09609 20.5125 3.46045 20.8728C4.16745 21.5798 5.08211 21.9438 6.00728 21.9928C6.05628 22.918 6.42028 23.8315 7.12728 24.5397C7.48766 24.904 7.91651 25.1936 8.38917 25.3916C8.86183 25.5897 9.36897 25.6923 9.88145 25.6937C10.3939 25.6951 10.9016 25.5951 11.3753 25.3996C11.8491 25.2041 12.2795 24.9169 12.6418 24.5545C13.0041 24.1921 13.2913 23.7616 13.4867 23.2879C13.6821 22.8141 13.7819 22.3064 13.7804 21.7939C13.7789 21.2815 13.6761 20.7743 13.478 20.3017C13.2798 19.8291 12.9902 19.4003 12.6258 19.04L19.0413 12.6245C19.4016 12.9889 19.8304 13.2786 20.303 13.4767C20.7756 13.6749 21.2827 13.7776 21.7952 13.7791C22.3077 13.7806 22.8154 13.6808 23.2892 13.4854C23.7629 13.29 24.1934 13.0029 24.5558 12.6405C24.9182 12.2782 25.2054 11.8478 25.4009 11.3741C25.5964 10.9003 25.6964 10.3926 25.695 9.88017C25.6936 9.3677 25.5909 8.86055 25.3929 8.38789C25.1948 7.91523 24.9053 7.48638 24.5409 7.126C23.8606 6.44905 22.9528 6.0494 21.9941 6.00484Z" fill="#353535"/>
</svg>
