<svg width="18" height="17" viewBox="0 0 18 17" fill="none" xmlns="http://www.w3.org/2000/svg">
<path d="M0.781845 16.7401L1.96138 12.3582C1.01011 10.6512 0.707888 8.65935 1.11016 6.74806C1.51243 4.83677 2.59222 3.13427 4.15137 1.95299C5.71053 0.771704 7.64447 0.190868 9.59832 0.317065C11.5522 0.443261 13.3949 1.26802 14.7883 2.64001C16.1817 4.012 17.0323 5.83917 17.1841 7.78625C17.3359 9.73333 16.7786 11.6697 15.6146 13.2401C14.4506 14.8104 12.7579 15.9094 10.8471 16.3353C8.93627 16.7613 6.93555 16.4856 5.21206 15.5589L0.781845 16.7401ZM5.42568 13.9192L5.69967 14.0813C6.94803 14.8194 8.40609 15.1248 9.84664 14.95C11.2872 14.7752 12.6293 14.1299 13.6638 13.1149C14.6984 12.0998 15.3672 10.7719 15.5661 9.33807C15.765 7.90425 15.4828 6.44508 14.7635 5.18793C14.0442 3.93079 12.9282 2.94629 11.5893 2.38787C10.2505 1.82944 8.76409 1.72845 7.36171 2.10064C5.95934 2.47283 4.71978 3.29729 3.83621 4.44553C2.95264 5.59378 2.47469 7.00131 2.47685 8.44879C2.47567 9.64898 2.80844 10.826 3.43812 11.8487L3.60994 12.1312L2.95052 14.5769L5.42568 13.9192Z" fill="white"/>
<path fill-rule="evenodd" clip-rule="evenodd" d="M12.0755 9.57394C11.9149 9.44472 11.7268 9.35378 11.5257 9.30802C11.3245 9.26227 11.1155 9.26292 10.9146 9.30992C10.6127 9.43498 10.4177 9.90745 10.2226 10.1437C10.1815 10.2003 10.1211 10.24 10.0527 10.2554C9.98427 10.2707 9.91261 10.2607 9.85113 10.2271C8.74605 9.79533 7.81976 9.00363 7.22271 7.98053C7.17179 7.91668 7.14769 7.83562 7.15548 7.75441C7.16328 7.67319 7.20236 7.59817 7.26451 7.54512C7.48204 7.33032 7.64176 7.06427 7.72889 6.77157C7.74824 6.44873 7.67409 6.12714 7.51528 5.84517C7.3925 5.44985 7.15885 5.09785 6.84192 4.83076C6.67846 4.75743 6.49721 4.73284 6.32005 4.75996C6.14289 4.78709 5.97738 4.86476 5.84349 4.98362C5.61106 5.18365 5.42656 5.43313 5.3036 5.71371C5.18063 5.99428 5.12233 6.29879 5.13299 6.60482C5.13371 6.77667 5.15554 6.94779 5.198 7.11434C5.30583 7.5145 5.47167 7.89682 5.69025 8.24919C5.84795 8.5191 6.02002 8.78042 6.20571 9.032C6.8092 9.85834 7.5678 10.5599 8.4394 11.0979C8.87678 11.3712 9.34423 11.5935 9.83255 11.7603C10.3398 11.9896 10.8999 12.0776 11.4532 12.015C11.7685 11.9674 12.0673 11.8432 12.3232 11.6534C12.5791 11.4636 12.7843 11.214 12.9207 10.9265C13.0009 10.7528 13.0252 10.5587 12.9904 10.3706C12.9068 9.98619 12.3913 9.75922 12.0755 9.57394Z" fill="white"/>
</svg>
